<?xml version="1.0" standalone="no"?>
<!DOCTYPE svg PUBLIC "-//W3C//DTD SVG 20010904//EN"
 "http://www.w3.org/TR/2001/REC-SVG-20010904/DTD/svg10.dtd">
<svg version="1.0" xmlns="http://www.w3.org/2000/svg"
 width="1001.000000pt" height="1001.000000pt" viewBox="0 0 1001.000000 1001.000000"
 preserveAspectRatio="xMidYMid meet">
<metadata>
Created by potrace 1.14, written by Peter Selinger 2001-2017
</metadata>
<g transform="translate(0.000000,1001.000000) scale(0.100000,-0.100000)"
fill="#000000" stroke="none">
<path d="M4160 9930 c-1337 -236 -2485 -966 -3268 -2080 -261 -371 -514 -882
-651 -1314 -353 -1110 -316 -2292 106 -3366 502 -1280 1543 -2321 2823 -2823
1175 -461 2485 -461 3660 0 1280 502 2321 1543 2823 2823 461 1175 461 2485 0
3660 -602 1535 -1962 2699 -3562 3049 -77 17 -144 31 -150 31 -8 0 -11 -243
-11 -820 l0 -820 505 0 505 0 0 -580 0 -580 -505 0 -505 0 3 -1772 c2 -1602 4
-1779 19 -1839 55 -222 141 -254 691 -254 l297 0 0 -607 0 -608 -42 0 c-24 0
-207 -7 -408 -15 -432 -17 -617 -18 -800 -5 -498 37 -843 154 -1064 361 -189
177 -280 402 -306 758 -6 82 -10 904 -10 2059 l0 1922 -435 0 -435 0 0 580 0
580 435 0 435 0 0 840 0 840 -22 -1 c-13 0 -70 -9 -128 -19z"/>
</g>
</svg>
